# xmcd
#
# Track frame offsets: 
#        150
#        21711
#        49289
#        60211
#        91315
#        111589
#        131325
#        155799
#        169423
#        195336
#        224351
#        243028
#        265348
#
# Disc length: 3648 seconds
#
# Revision: 1
# Processed by: cddbd v1.5.1PL2 Copyright (c) Steve Scherf et al.
# Submitted via: ExactAudioCopy v0.95b4
#
DISCID=bb0e3e0d
DTITLE=Catfish Keith - Sweet Pea
DYEAR=2005
DGENRE=Blues
TTITLE0=Gonna Get My Hambone Boiled
TTITLE1=Lightning Flash,Thunder Roll
TTITLE2=Salty Thang
TTITLE3=When I Was a Cowboy
TTITLE4=A True Friend is Hard To Find
TTITLE5=Put Your Bucket in Your Basket
TTITLE6=Blotted Out My Mind
TTITLE7=Baby,I'm a Fine Artiste
TTITLE8=Deep Sea Moan
TTITLE9=Pile of Plates and a Carving Knife
TTITLE10=Little Sweet Pea
TTITLE11=That Ain't No Way for Me To Get Along
TTITLE12=I'm Going to German
EXTD=Fish Tail Records\nFTRCD009
EXTT0=
EXTT1=
EXTT2=
EXTT3=
EXTT4=
EXTT5=
EXTT6=
EXTT7=
EXTT8=
EXTT9=
EXTT10=
EXTT11=
EXTT12=
PLAYORDER=
